{
  "accessors": [
    {
      "bufferView": 2,
      "componentType": 5126,
      "count": 25150,
      "max": [
        0.05218400061130524,
        0.06174800172448158,
        0.0415319986641407
      ],
      "min": [
        -0.0654349997639656,
        -0.05183500051498413,
        -0.06585799902677536
      ],
      "type": "VEC3"
    },
    {
      "bufferView": 2,
      "byteOffset": 301800,
      "componentType": 5126,
      "count": 25150,
      "max": [
        0.9999622106552124,
        0.9999908804893494,
        0.9983581304550171
      ],
      "min": [
        -0.9999727606773376,
        -0.9997002482414246,
        -0.999983012676239
      ],
      "type": "VEC3"
    },
    {
      "bufferView": 1,
      "componentType": 5126,
      "count": 25150,
      "max": [
        0.9988499879837036,
        0.9994950294494629
      ],
      "min": [
        0.0,
        0.0
      ],
      "type": "VEC2"
    },
    {
      "bufferView": 0,
      "componentType": 5125,
      "count": 132108,
      "type": "SCALAR"
    }
  ],
  "asset": {
    "extras": {
      "author": "Foto Retina (https://sketchfab.com/ferret)",
      "license": "CC-BY-4.0 (http://creativecommons.org/licenses/by/4.0/)",
      "source": "https://sketchfab.com/3d-models/childrens-shoes-4bef5d1c53404ef9875594bf16d4d99b",
      "title": "Children's shoes"
    },
    "generator": "Sketchfab-12.66.0",
    "version": "2.0"
  },
  "bufferViews": [
    {
      "buffer": 0,
      "byteLength": 528432,
      "name": "floatBufferViews",
      "target": 34963
    },
    {
      "buffer": 0,
      "byteLength": 201200,
      "byteOffset": 528432,
      "byteStride": 8,
      "name": "floatBufferViews",
      "target": 34962
    },
    {
      "buffer": 0,
      "byteLength": 603600,
      "byteOffset": 729632,
      "byteStride": 12,
      "name": "floatBufferViews",
      "target": 34962
    }
  ],
  "buffers": [
    {
      "byteLength": 1333232,
      "uri": "scene.bin"
    }
  ],
  "images": [
    {
      "uri": "textures/mesh_baseColor.jpeg"
    }
  ],
  "materials": [
    {
      "doubleSided": true,
      "name": "mesh",
      "pbrMetallicRoughness": {
        "baseColorTexture": {
          "index": 0
        },
        "metallicFactor": 0.0,
        "roughnessFactor": 0.841886117
      }
    }
  ],
  "meshes": [
    {
      "name": "Object_0",
      "primitives": [
        {
          "attributes": {
            "NORMAL": 1,
            "POSITION": 0,
            "TEXCOORD_0": 2
          },
          "indices": 3,
          "material": 0,
          "mode": 4
        }
      ]
    }
  ],
  "nodes": [
    {
      "children": [
        1
      ],
      "matrix": [
        -0.6201716661453247,
        -0.044782727956772024,
        0.7831868529319763,
        0.0,
        -0.7836830615997314,
        0.07996557652950301,
        -0.6159921884536743,
        0.0,
        -0.0350421741604805,
        -0.9957911372184753,
        -0.08468785136938117,
        0.0,
        -0.007276235148310661,
        -0.024967636913061142,
        0.002255572006106371,
        1.0
      ],
      "name": "Sketchfab_model"
    },
    {
      "children": [
        2
      ],
      "name": "mesh.obj.cleaner.materialmerger.gles"
    },
    {
      "mesh": 0,
      "name": "Object_2"
    }
  ],
  "samplers": [
    {
      "magFilter": 9729,
      "minFilter": 9987,
      "wrapS": 10497,
      "wrapT": 10497
    }
  ],
  "scene": 0,
  "scenes": [
    {
      "name": "Sketchfab_Scene",
      "nodes": [
        0
      ]
    }
  ],
  "textures": [
    {
      "sampler": 0,
      "source": 0
    }
  ]
}
